<?xml version="1.0" standalone="no"?>
<!DOCTYPE svg PUBLIC "-//W3C//DTD SVG 20010904//EN"
 "http://www.w3.org/TR/2001/REC-SVG-20010904/DTD/svg10.dtd">
<svg version="1.0" xmlns="http://www.w3.org/2000/svg"
 width="272.000000pt" height="272.000000pt" viewBox="0 0 272.000000 272.000000"
 preserveAspectRatio="xMidYMid meet">
<metadata>
Created by potrace 1.14, written by Peter Selinger 2001-2017
</metadata>
<g transform="translate(0.000000,272.000000) scale(0.100000,-0.100000)"
fill="#000000" stroke="none">
<path d="M0 1360 l0 -1360 1360 0 1360 0 0 1360 0 1360 -1360 0 -1360 0 0
-1360z m1500 410 l0 -269 133 -3 132 -3 3 -272 2 -273 135 0 135 0 0 -135 0
-135 -135 0 -135 0 0 135 0 135 -135 0 -135 0 0 135 0 135 -140 0 -140 0 0
-135 0 -135 -135 0 -135 0 0 -135 0 -135 -135 0 -135 0 0 135 0 135 135 0 135
0 0 275 0 275 -135 0 -135 0 0 135 0 135 135 0 135 0 0 -135 0 -135 135 0 135
0 0 270 0 270 140 0 140 0 0 -270z m540 -135 l0 -135 -135 0 -135 0 0 135 0
135 135 0 135 0 0 -135z"/>
</g>
</svg>
